<svg xmlns="http://www.w3.org/2000/svg" xmlns:xlink="http://www.w3.org/1999/xlink" viewBox="0 0 182.49 40.03"><defs><style>.cls-1{fill:url(#linear-gradient);}.cls-2{fill:url(#linear-gradient-2);}.cls-3{fill:url(#linear-gradient-3);}.cls-4{fill:url(#linear-gradient-4);}.cls-5{fill:url(#linear-gradient-5);}.cls-6{fill:url(#linear-gradient-6);}.cls-7{fill:#999;}</style><linearGradient id="linear-gradient" x1="38.32" y1="3.76" x2="183.32" y2="35.76" gradientUnits="userSpaceOnUse"><stop offset="0" stop-color="#661ba4"/><stop offset="1" stop-color="#1bc3d7"/></linearGradient><linearGradient id="linear-gradient-2" x1="36.11" y1="13.87" x2="181.11" y2="45.87" xlink:href="#linear-gradient"/><linearGradient id="linear-gradient-3" x1="41.43" y1="-10.2" x2="186.43" y2="21.8" xlink:href="#linear-gradient"/><linearGradient id="linear-gradient-4" x1="36.23" y1="13.32" x2="181.23" y2="45.32" xlink:href="#linear-gradient"/><linearGradient id="linear-gradient-5" x1="33.63" y1="25.14" x2="178.63" y2="57.14" xlink:href="#linear-gradient"/><linearGradient id="linear-gradient-6" x1="35.29" y1="17.61" x2="180.29" y2="49.61" xlink:href="#linear-gradient"/></defs><title>Asset 2</title><g id="Layer_2" data-name="Layer 2"><g id="Layer_2-2" data-name="Layer 2"><path class="cls-1" d="M160.42,23.62c-1.13.54-2.24,1.49-3.41,1.56-3.5.21-7,.08-10.65.08-.38,3.94-1,7.38-5.58,7.61-3.33.17-5-1.71-6.49-7.59-8.7,0-17.52-.09-26.33.16-.75,0-1.89,2.24-2.08,3.55-1,6.81-4,10.39-9.53,11a12.67,12.67,0,0,1-1.91-.24c6-2.89,7.68-7.75,7.49-13.28-.18-5.12,2.08-10.57-2-15.29L106,6.94V21.08h7.94L112.53,4.75l-1.23-.06,6-4.69V21.13H126L123.49,15l5.93-4.17V21.11h5.69c-.7-3.27-1.36-6.32-2.06-9.58l5.4-3.8c0,5.58-.16,10.86.09,16.11.07,1.66,1.22,3.27,1.88,4.9.65-1.59,1.85-3.18,1.84-4.76,0-5.31-.51-10.61-.82-15.91l-1.27-.13L146,3.88V21.25h11.74c1.66,0,3.16.16,2.57,2.48Z"/><path class="cls-2" d="M40.71,30.48c5.37,3.14,10.82,2.91,16.18,2,1.33-.23,3.11-2.28,3.36-3.72C61,24.28,61,19.69,58,15.47l6-5V21.06h5.43c-.11-1.85.45-4.14-.45-5.41-2.45-3.5-.69-5.13,2.08-6.75a20,20,0,0,0,2.23-2.1c0,2.32,0,3.83,0,5.35,0,4.68,0,9.36.24,14,0,.86,1.12,1.68,1.72,2.51.56-.86,1.6-1.73,1.6-2.59,0-6,1.77-12.13-1.94-17.84l5.82-4.43V21.11l6.52.29c-.59-4.12-1.18-7.86-1.62-11.62A4,4,0,0,1,86.23,7,36.11,36.11,0,0,1,90.6,3.44V25.06c-1.22.06-2.44.24-3.65.18-3.36-.17-6.44-.53-6.8,4.46-.18,2.61-3.06,3.56-5.37,2.88a11.82,11.82,0,0,1-4.73-3.5c-.65-.69-.47-2.15-.72-3.52H64.74c-.17.82-.41,1.65-.51,2.5-.74,6.55-2.52,8.21-9.25,8.29-6.06.08-12.12,0-18.7,0Z"/><path class="cls-3" d="M160.34,23.73l5.92-10.83,1,.38-2-3c-4.38,2.62-3.6,10.36-11.52,10.38L164.78,2.5l4.32,6c1.19-1.77,2.4-3.58,4.43-6.63,3.26,6.1,6.35,11.11,8.64,16.46,1.35,3.15-1.74,6.5-5.77,6.75-3.88.23-7.79.05-12,.05-.36,2.61.49,4.65,3.17,5.5a4.28,4.28,0,0,0,5.75-2.9c.79-2.32,2-2.53,3.95-1.83.13,5-2.27,8.05-6.89,8.79a8.18,8.18,0,0,1-9.49-6.21,32.54,32.54,0,0,1-.51-4.87Zm15.71-2.88c4-1.46,3.26-4.68-3.15-11.55-1.86,1.51-2,3-.55,5.07A67.46,67.46,0,0,1,176.05,20.85Zm-7.51-5.46-2.89,5.79h6.41Z"/><path class="cls-4" d="M115.72,34.21c-1.43-1.89-2.92-3-2.83-4s1.67-2.7,2.63-2.72,2.63,1.52,2.79,2.56S117,32.24,115.72,34.21Z"/><path class="cls-5" d="M92.2,37.4C90,38.66,88.68,40,87.74,39.8a4.12,4.12,0,0,1-2.38-3C85.29,36,87.1,34.43,88,34.46,89.12,34.5,90.16,35.88,92.2,37.4Z"/><path class="cls-6" d="M88.08,25.79c1.32,2.21,2.56,3.38,2.5,4.48-.06.93-1.78,2.6-2.47,2.47a4.06,4.06,0,0,1-2.77-2.61C85.22,29.12,86.64,27.94,88.08,25.79Z"/><path class="cls-7" d="M0,16.1a10.66,10.66,0,0,1,2-.17,3.28,3.28,0,0,1,2.34.66A2,2,0,0,1,5,18.12a2.13,2.13,0,0,1-1.53,2.07v0a2,2,0,0,1,1.19,1.63,13,13,0,0,0,.63,2.22H4.19a9.25,9.25,0,0,1-.54-1.93C3.41,21,3,20.61,2,20.57H1v3.5H0Zm1,3.68H2.11c1.12,0,1.82-.61,1.82-1.54s-.75-1.5-1.85-1.51a4.18,4.18,0,0,0-1,.1Z"/><path class="cls-7" d="M10.64,20.28H7.5V23.2H11v.87H6.46V16h4.36v.87H7.5v2.56h3.14Z"/><path class="cls-7" d="M12.36,16.1a14.44,14.44,0,0,1,2.22-.17,4.6,4.6,0,0,1,3.27,1A3.71,3.71,0,0,1,19,19.84,4.28,4.28,0,0,1,17.83,23a5,5,0,0,1-3.58,1.16,17,17,0,0,1-1.89-.09Zm1,7.14a6.45,6.45,0,0,0,1.06.06,3.1,3.1,0,0,0,3.44-3.43c0-1.9-1.07-3.11-3.27-3.11a6.14,6.14,0,0,0-1.23.1Z"/><path class="cls-7" d="M24.54,20.28H21.4V23.2h3.5v.87H20.35V16h4.37v.87H21.4v2.56h3.14Z"/><path class="cls-7" d="M26.11,22.8a3.68,3.68,0,0,0,1.87.53c1.07,0,1.69-.57,1.69-1.38s-.43-1.19-1.52-1.61C26.83,19.87,26,19.19,26,18.05a2.32,2.32,0,0,1,2.61-2.19,3.73,3.73,0,0,1,1.79.39l-.29.85a3.25,3.25,0,0,0-1.54-.38c-1.1,0-1.52.66-1.52,1.21,0,.76.49,1.13,1.61,1.56,1.37.53,2.06,1.19,2.06,2.38s-.92,2.32-2.83,2.32a4.25,4.25,0,0,1-2.06-.51Z"/><path class="cls-7" d="M33.21,16v8.08h-1V16Z"/><path class="cls-7" d="M41.19,23.71a7.45,7.45,0,0,1-2.48.45,4.18,4.18,0,0,1-3-1.07,4.14,4.14,0,0,1-1.13-3,4.06,4.06,0,0,1,4.38-4.18,4.93,4.93,0,0,1,2,.38l-.25.85a4.21,4.21,0,0,0-1.79-.35A3,3,0,0,0,35.66,20a3,3,0,0,0,3.12,3.26,3.43,3.43,0,0,0,1.39-.21V20.67H38.53v-.84h2.66Z"/><path class="cls-7" d="M42.79,24.07V16h1.14l2.59,4.09A23,23,0,0,1,48,22.7h0c-.1-1.08-.12-2.06-.12-3.32V16h1v8.08H47.8L45.24,20a23,23,0,0,1-1.51-2.7h0c.06,1,.08,2,.08,3.34v3.45Z"/></g></g></svg>