<svg xmlns="http://www.w3.org/2000/svg" xmlns:xlink="http://www.w3.org/1999/xlink" viewBox="0 0 123.22 33.71"><defs><style>.cls-1{fill:url(#linear-gradient);}.cls-2{fill:url(#linear-gradient-2);}.cls-3{fill:url(#linear-gradient-3);}.cls-4{fill:url(#linear-gradient-4);}.cls-5{fill:url(#linear-gradient-5);}.cls-6{fill:url(#linear-gradient-6);}</style><linearGradient id="linear-gradient" x1="1.69" y1="829.67" x2="123.92" y2="802.69" gradientTransform="matrix(1, 0, 0, -1, 0, 832.82)" gradientUnits="userSpaceOnUse"><stop offset="0" stop-color="#5a40b0"/><stop offset="1" stop-color="#00bad7"/></linearGradient><linearGradient id="linear-gradient-2" x1="-0.17" y1="821.13" x2="122.06" y2="794.15" xlink:href="#linear-gradient"/><linearGradient id="linear-gradient-3" x1="4.31" y1="841.41" x2="126.53" y2="814.43" xlink:href="#linear-gradient"/><linearGradient id="linear-gradient-4" x1="-0.07" y1="821.59" x2="122.16" y2="794.62" xlink:href="#linear-gradient"/><linearGradient id="linear-gradient-5" x1="-2.27" y1="811.61" x2="119.95" y2="784.64" xlink:href="#linear-gradient"/><linearGradient id="linear-gradient-6" x1="-0.87" y1="817.97" x2="121.36" y2="791" xlink:href="#linear-gradient"/></defs><title>logo</title><g id="Layer_2" data-name="Layer 2"><g id="Layer_2-2" data-name="Layer 2"><g id="Layer_2-2-2" data-name="Layer 2-2"><path class="cls-1" d="M104.62,19.91c-1,.46-1.9,1.26-2.88,1.31-3,.18-5.9.07-9,.07-.32,3.32-.84,6.22-4.71,6.42-2.8.14-4.21-1.44-5.47-6.4-7.32,0-14.76-.08-22.19.13-.63,0-1.59,1.89-1.76,3-.84,5.74-3.37,8.75-8,9.27a12.42,12.42,0,0,1-1.61-.2c5.06-2.44,6.48-6.54,6.31-11.2C55.15,18,57.07,13.4,53.62,9.42l5.06-3.6v12h6.69L64.25,4,63.19,4l5-3.95V17.81h7.35l-2.11-5.17,5-3.51v8.66h4.79c-.6-2.75-1.14-5.32-1.74-8.07l4.55-3.2c0,4.7-.13,9.15.07,13.58.07,1.39,1,2.75,1.6,4.13.54-1.34,1.56-2.68,1.54-4,0-4.47-.43-8.94-.69-13.41l-1.06-.11,4.94-3.42V17.91h9.89c1.39,0,2.67.14,2.16,2.09Z"/><path class="cls-2" d="M3.7,25.69c4.53,2.65,9.12,2.46,13.64,1.69a4.59,4.59,0,0,0,2.83-3.14c.65-3.79.66-7.66-1.87-11.22l5.06-4.21v8.94h4.57c-.09-1.56.38-3.49-.37-4.56C25.49,10.24,27,8.87,29.3,7.5a16.27,16.27,0,0,0,1.85-1.77v4.51c0,3.95,0,7.89.21,11.8,0,.73.94,1.42,1.45,2.12.47-.73,1.35-1.46,1.34-2.18,0-5.06,1.49-10.23-1.64-15L37.42,3.2V17.79L43,18c-.49-3.47-1-6.63-1.36-9.8a3.29,3.29,0,0,1,.51-2.34,30.24,30.24,0,0,1,3.69-3v18.2c-1,.05-2.07.21-3.08.16-2.84-.15-5.44-.45-5.73,3.76-.15,2.2-2.58,3-4.53,2.42a9.88,9.88,0,0,1-4-2.95c-.54-.58-.4-1.81-.6-3H24a21.08,21.08,0,0,0-.42,2.1c-.63,5.52-2.13,6.92-7.8,7-5.11.07-10.22,0-15.77,0Z"/><path class="cls-3" d="M104.54,20l5-9.13.84.32L108.7,8.67c-3.69,2.2-3,8.73-9.71,8.74l9.3-15.3,3.64,5.05,3.74-5.58C118.41,6.74,121,11,123,15.45c1.13,2.66-1.48,5.48-4.87,5.69s-6.56,0-10.12,0c-.29,2.2.42,3.92,2.67,4.64a3.61,3.61,0,0,0,4.7-2,3.53,3.53,0,0,0,.15-.46c.67-1.95,1.69-2.13,3.33-1.54.12,4.22-1.91,6.79-5.8,7.41A6.91,6.91,0,0,1,105,24a28.36,28.36,0,0,1-.43-4.11Zm13.24-2.42c3.37-1.24,2.75-3.95-2.64-9.74-1.57,1.27-1.69,2.53-.48,4.27A51.78,51.78,0,0,1,117.78,17.58ZM111.45,13,109,17.85h5.41Z"/><path class="cls-4" d="M66.93,28.84c-1.2-1.6-2.46-2.53-2.39-3.38a3.3,3.3,0,0,1,2.23-2.29,3.12,3.12,0,0,1,2.32,2.17C69.19,26.23,68,27.18,66.93,28.84Z"/><path class="cls-5" d="M47.1,31.53c-1.84,1.06-3,2.2-3.76,2a3.51,3.51,0,0,1-2-2.53c-.06-.62,1.46-2,2.25-1.95S45.39,30.24,47.1,31.53Z"/><path class="cls-6" d="M43.64,21.74c1.1,1.86,2.16,2.85,2.1,3.78s-1.49,2.19-2.08,2.08a3.37,3.37,0,0,1-2.33-2.2C41.27,24.55,42.42,23.55,43.64,21.74Z"/></g></g></g></svg>