<svg xmlns="http://www.w3.org/2000/svg" xmlns:xlink="http://www.w3.org/1999/xlink" viewBox="0 0 187.22 40.03"><defs><style>.cls-1{fill:url(#linear-gradient);}.cls-2{fill:url(#linear-gradient-2);}.cls-3{fill:url(#linear-gradient-3);}.cls-4{fill:url(#linear-gradient-4);}.cls-5{fill:url(#linear-gradient-5);}.cls-6{fill:url(#linear-gradient-6);}.cls-7{fill:#e6e6e6;}.cls-8{font-size:12px;fill:gray;font-family:Cairo-Light, Cairo Light;font-weight:300;}</style><linearGradient id="linear-gradient" x1="43.04" y1="3.76" x2="188.04" y2="35.76" gradientUnits="userSpaceOnUse"><stop offset="0" stop-color="#5a40b0"/><stop offset="1" stop-color="#00bad7"/></linearGradient><linearGradient id="linear-gradient-2" x1="40.84" y1="13.87" x2="185.84" y2="45.87" xlink:href="#linear-gradient"/><linearGradient id="linear-gradient-3" x1="46.15" y1="-10.2" x2="191.15" y2="21.8" xlink:href="#linear-gradient"/><linearGradient id="linear-gradient-4" x1="40.96" y1="13.32" x2="185.96" y2="45.32" xlink:href="#linear-gradient"/><linearGradient id="linear-gradient-5" x1="38.35" y1="25.14" x2="183.35" y2="57.14" xlink:href="#linear-gradient"/><linearGradient id="linear-gradient-6" x1="40.01" y1="17.61" x2="185.01" y2="49.61" xlink:href="#linear-gradient"/></defs><title>logo-admin</title><g id="Layer_2" data-name="Layer 2"><g id="Layer_2-2" data-name="Layer 2"><path class="cls-1" d="M165.15,23.62c-1.14.54-2.25,1.49-3.41,1.56-3.51.21-7,.08-10.65.08-.38,3.94-1,7.38-5.59,7.61-3.33.17-5-1.71-6.49-7.59-8.69,0-17.51-.09-26.33.16-.75,0-1.88,2.24-2.08,3.55-1,6.81-4,10.39-9.53,11a12.67,12.67,0,0,1-1.91-.24c6-2.89,7.69-7.75,7.49-13.28-.18-5.12,2.09-10.57-2-15.29l6-4.28V21.08h7.94L117.26,4.75,116,4.69,122,0V21.13h8.71L128.21,15l5.94-4.17V21.11h5.69c-.71-3.27-1.36-6.32-2.07-9.58l5.4-3.8c0,5.58-.15,10.86.09,16.11.08,1.66,1.23,3.27,1.89,4.9.64-1.59,1.85-3.18,1.83-4.76,0-5.31-.51-10.61-.82-15.91l-1.26-.13,5.86-4.06V21.25H162.5c1.65,0,3.16.16,2.56,2.48Z"/><path class="cls-2" d="M45.43,30.48c5.37,3.14,10.82,2.91,16.18,2,1.34-.23,3.12-2.28,3.36-3.72.77-4.5.78-9.09-2.22-13.31l6-5V21.06h5.42c-.1-1.85.45-4.14-.44-5.41-2.45-3.5-.69-5.13,2.07-6.75A19.72,19.72,0,0,0,78,6.8c0,2.32,0,3.83,0,5.35,0,4.68,0,9.36.24,14,0,.86,1.12,1.68,1.72,2.51.56-.86,1.6-1.73,1.59-2.59,0-6,1.77-12.13-1.94-17.84l5.82-4.43V21.11L92,21.4c-.58-4.12-1.18-7.86-1.61-11.62A3.89,3.89,0,0,1,91,7a34.62,34.62,0,0,1,4.37-3.53V25.06c-1.23.06-2.45.24-3.65.18-3.37-.17-6.45-.53-6.8,4.46-.18,2.61-3.06,3.56-5.37,2.88a11.76,11.76,0,0,1-4.73-3.5c-.65-.69-.48-2.15-.72-3.52h-4.6c-.17.82-.41,1.65-.5,2.5-.75,6.55-2.52,8.21-9.25,8.29-6.06.08-12.13,0-18.71,0Z"/><path class="cls-3" d="M165.06,23.73,171,12.9l1,.38-2-3c-4.38,2.62-3.6,10.36-11.52,10.38L169.51,2.5l4.32,6,4.43-6.63C181.52,8,184.61,13,186.9,18.33c1.34,3.15-1.75,6.5-5.78,6.75-3.88.23-7.78.05-12,.05-.35,2.61.49,4.65,3.17,5.5a4.28,4.28,0,0,0,5.75-2.9c.79-2.32,2-2.53,3.95-1.83.14,5-2.27,8.05-6.88,8.79a8.19,8.19,0,0,1-9.5-6.21,32.54,32.54,0,0,1-.51-4.87A1.25,1.25,0,0,1,165.06,23.73Zm15.71-2.88c4-1.46,3.26-4.68-3.14-11.55-1.86,1.51-2,3-.56,5.07A63.46,63.46,0,0,1,180.77,20.85Zm-7.51-5.46c-1.07,2.14-1.94,3.89-2.88,5.79h6.41Z"/><path class="cls-4" d="M120.44,34.21c-1.42-1.89-2.92-3-2.83-4s1.67-2.7,2.64-2.72S122.88,29,123,30.06,121.76,32.24,120.44,34.21Z"/><path class="cls-5" d="M96.92,37.4c-2.19,1.26-3.51,2.62-4.46,2.4a4.16,4.16,0,0,1-2.38-3c-.07-.74,1.74-2.34,2.67-2.31C93.84,34.5,94.89,35.88,96.92,37.4Z"/><path class="cls-6" d="M92.81,25.79c1.31,2.21,2.56,3.38,2.49,4.48,0,.93-1.77,2.6-2.47,2.47a4,4,0,0,1-2.76-2.61C90,29.12,91.37,27.94,92.81,25.79Z"/><rect class="cls-7" y="7.07" width="57" height="17" rx="8.5"/><text class="cls-8" transform="translate(11.18 19.67)">Admin</text></g></g></svg>