<svg xmlns="http://www.w3.org/2000/svg" xmlns:xlink="http://www.w3.org/1999/xlink" viewBox="0 0 145.66 31.95"><defs><style>.cls-1{fill:#ccc;}.cls-2{fill:url(#linear-gradient);}.cls-3{fill:url(#linear-gradient-2);}.cls-4{fill:url(#linear-gradient-4);}.cls-5{fill:url(#linear-gradient-5);}</style><linearGradient id="linear-gradient" x1="-4.06" y1="13.86" x2="151.12" y2="13.86" gradientUnits="userSpaceOnUse"><stop offset="0" stop-color="#5a40b0"/><stop offset="1" stop-color="#00bad7"/></linearGradient><linearGradient id="linear-gradient-2" x1="-4.06" y1="24.56" x2="151.12" y2="24.56" xlink:href="#linear-gradient"/><linearGradient id="linear-gradient-4" x1="-4.06" y1="24.55" x2="151.12" y2="24.55" xlink:href="#linear-gradient"/><linearGradient id="linear-gradient-5" x1="-4.06" y1="14.14" x2="151.12" y2="14.14" xlink:href="#linear-gradient"/></defs><title>logo</title><g id="Layer_2" data-name="Layer 2"><g id="Layer_2-2" data-name="Layer 2"><path class="cls-1" d="M96.35,29.1h-1.6v2.76h-.91V25h2.27a2.65,2.65,0,0,1,1.77.52,1.87,1.87,0,0,1,.62,1.53,1.81,1.81,0,0,1-.34,1.11,2,2,0,0,1-1,.71l1.6,2.9v.06h-1Zm-1.6-.74h1.38A1.57,1.57,0,0,0,97.2,28a1.16,1.16,0,0,0,.4-.93,1.24,1.24,0,0,0-.38-1,1.62,1.62,0,0,0-1.09-.35H94.75Z"/><path class="cls-1" d="M104.7,28.7h-3v2.42h3.44v.74h-4.34V25h4.3v.73h-3.4V28h3Z"/><path class="cls-1" d="M107.38,31.86V25h1.93a3.16,3.16,0,0,1,1.58.39,2.64,2.64,0,0,1,1,1.12,3.6,3.6,0,0,1,.38,1.67v.44a3.63,3.63,0,0,1-.37,1.69,2.57,2.57,0,0,1-1.07,1.12,3.34,3.34,0,0,1-1.61.4Zm.9-6.1v5.36h1a2,2,0,0,0,1.62-.65,2.64,2.64,0,0,0,.58-1.84v-.4a2.68,2.68,0,0,0-.55-1.81,2,2,0,0,0-1.55-.66Z"/><path class="cls-1" d="M118.62,28.7h-3v2.42h3.44v.74h-4.34V25h4.29v.73h-3.39V28h3Z"/><path class="cls-1" d="M123.31,28.81a4.36,4.36,0,0,1-1.69-.81,1.58,1.58,0,0,1-.52-1.2,1.65,1.65,0,0,1,.64-1.34,2.58,2.58,0,0,1,1.68-.53,2.65,2.65,0,0,1,1.25.28,2,2,0,0,1,.86.75,1.91,1.91,0,0,1,.3,1h-.91a1.24,1.24,0,0,0-.39-1,1.58,1.58,0,0,0-1.11-.36,1.67,1.67,0,0,0-1,.29,1,1,0,0,0-.37.82.88.88,0,0,0,.35.71,3.57,3.57,0,0,0,1.21.53,5.84,5.84,0,0,1,1.33.52,2,2,0,0,1,.71.68,1.65,1.65,0,0,1,.23.9,1.58,1.58,0,0,1-.64,1.33,2.72,2.72,0,0,1-1.73.5,3.25,3.25,0,0,1-1.32-.27,2.19,2.19,0,0,1-.94-.74,1.78,1.78,0,0,1-.33-1.06h.91a1.19,1.19,0,0,0,.45,1,2,2,0,0,0,1.23.36,1.79,1.79,0,0,0,1.09-.29,1,1,0,0,0,.38-.8.93.93,0,0,0-.35-.77A4,4,0,0,0,123.31,28.81Z"/><path class="cls-1" d="M129,31.86h-.9V25h.9Z"/><path class="cls-1" d="M136.81,31a2.11,2.11,0,0,1-1,.75,4,4,0,0,1-1.45.24,2.82,2.82,0,0,1-1.48-.39,2.57,2.57,0,0,1-1-1.11,3.85,3.85,0,0,1-.37-1.68v-.59a3.62,3.62,0,0,1,.73-2.4,2.52,2.52,0,0,1,2-.85,2.61,2.61,0,0,1,1.72.55,2.36,2.36,0,0,1,.8,1.55h-.9a1.49,1.49,0,0,0-1.62-1.36,1.58,1.58,0,0,0-1.37.64,3.08,3.08,0,0,0-.47,1.84v.56a2.91,2.91,0,0,0,.53,1.83,1.7,1.7,0,0,0,1.42.68,3,3,0,0,0,.89-.12,1.34,1.34,0,0,0,.62-.37V29.19h-1.58v-.73h2.48Z"/><path class="cls-1" d="M144.64,31.86h-.91l-3.44-5.27v5.27h-.9V25h.9l3.45,5.29V25h.9Z"/><path class="cls-2" d="M49.74,14.54h-9.3c.1-1.95.14-3.38.14-4.28A47.9,47.9,0,0,0,39.5.25L33.82,1a45.91,45.91,0,0,1,1,9.58c0,1-.07,2.36-.2,3.94h-.84A5,5,0,0,1,30.84,14a2.88,2.88,0,0,1-.73-2.3v-9H24.62v8.3a6.55,6.55,0,0,1-.5,3,1.94,1.94,0,0,1-1.84.92A1.83,1.83,0,0,1,20.57,14,6.24,6.24,0,0,1,20,10.88V4.09H14.25v12.3q0,6.56-4.14,6.55c-2.88,0-4.33-2.18-4.33-6.55a23.5,23.5,0,0,1,1-6.77l-6,1.05A24.61,24.61,0,0,0,0,17Q0,27.47,9.69,27.47a11.09,11.09,0,0,0,7.08-2.1,8.35,8.35,0,0,0,3-6.92,2.79,2.79,0,0,0,2.3.8,5.53,5.53,0,0,0,2.07-.34,4.18,4.18,0,0,0,2.43-2.1c.79,1.51,2.89,2.26,6.28,2.26H55.5V1.89H49.74Z"/><path class="cls-3" d="M46.26,21.75a2.63,2.63,0,0,0-1.95.82,2.72,2.72,0,0,0-.8,2,2.79,2.79,0,0,0,.8,2,2.67,2.67,0,0,0,1.95.82,2.6,2.6,0,0,0,1.94-.82,2.75,2.75,0,0,0,.81-2,2.69,2.69,0,0,0-.81-2A2.59,2.59,0,0,0,46.26,21.75Z"/><path class="cls-3" d="M52.77,21.75a2.57,2.57,0,0,0-2,.82,2.72,2.72,0,0,0-.79,2,2.75,2.75,0,0,0,.79,2,2.73,2.73,0,0,0,3.9,0,2.78,2.78,0,0,0,.79-2,2.72,2.72,0,0,0-.79-2A2.59,2.59,0,0,0,52.77,21.75Z"/><path class="cls-4" d="M77.16,21.69a2.87,2.87,0,0,0-2.86,2.86,2.77,2.77,0,0,0,.84,2,2.74,2.74,0,0,0,2,.82,2.79,2.79,0,0,0,2-.82,2.86,2.86,0,0,0,0-4A2.77,2.77,0,0,0,77.16,21.69Z"/><path class="cls-5" d="M130.94,0a29.73,29.73,0,0,0-9.06,1.46l.55,4.09a24.53,24.53,0,0,1,7.85-1.36q5.21,0,7.62,2.59t2.28,7.51v.25h-3.06v-.48A7.87,7.87,0,0,0,135.58,9a6.54,6.54,0,0,0-5.37-2.16,7.54,7.54,0,0,0-5.3,1.78A5.69,5.69,0,0,0,123.06,13a3.07,3.07,0,0,0,.57,1.82,5.77,5.77,0,0,0-1.86-.25h-5c.07-1.46.11-2.89.11-4.28a44.9,44.9,0,0,0-1.09-10L110.19,1a48.89,48.89,0,0,1,1,9.58,38,38,0,0,1-.23,3.94h-.81a5.15,5.15,0,0,1-2.94-.57,2.89,2.89,0,0,1-.71-2.32v-9H101v8.3q0,3.9-2.41,3.9A1.76,1.76,0,0,1,96.85,14a7.23,7.23,0,0,1-.46-3.12V4.09H90.57v6.2a6.22,6.22,0,0,1-.64,3.41,2.72,2.72,0,0,1-2.3.84H82.92V1.89H77.1V14.54H70.25V1.89H64.47V19.43a5.36,5.36,0,0,1-.86,3.46,3.12,3.12,0,0,1-2.46.89,10,10,0,0,1-2.48-.29l-.41,4.57a15.15,15.15,0,0,0,2.59.22q9.41,0,9.4-9.07v-.14H87.54q3.76,0,4.87-2.37c.64,1.77,2.31,2.66,5,2.66s4.58-.85,5.46-2.55q1.4,2.27,6.28,2.26h36.52V14.86Q145.66,0,130.94,0Zm1.57,14.72h-1.85c-2,0-3-.79-3-2.38,0-1.36.74-2.05,2.2-2.05q2.69,0,2.69,3.63Z"/></g></g></svg>