<svg xmlns="http://www.w3.org/2000/svg" xmlns:xlink="http://www.w3.org/1999/xlink" viewBox="0 0 12.05 17.23"><defs><style>.cls-1{fill:url(#linear-gradient);}</style><linearGradient id="linear-gradient" x1="0.01" y1="7.59" x2="13.49" y2="11.36" gradientUnits="userSpaceOnUse"><stop offset="0" stop-color="#661ba4"/><stop offset="1" stop-color="#1bc3d7"/></linearGradient></defs><title>password</title><g id="Layer_2" data-name="Layer 2"><g id="Layer_2-2" data-name="Layer 2"><path class="cls-1" d="M11.19,6.9a.85.85,0,0,1,.86.86v8.61a.85.85,0,0,1-.86.86H.86A.82.82,0,0,1,.25,17,.82.82,0,0,1,0,16.37V7.76a.82.82,0,0,1,.25-.61A.82.82,0,0,1,.86,6.9ZM.86,7.47a.27.27,0,0,0-.29.29v8.61a.32.32,0,0,0,.08.21.29.29,0,0,0,.21.08H11.19a.28.28,0,0,0,.2-.08.29.29,0,0,0,.09-.21V7.76a.26.26,0,0,0-.09-.21.28.28,0,0,0-.2-.08ZM7.7.34a4.29,4.29,0,0,1,1.37.92A4.49,4.49,0,0,1,10,2.63a4.3,4.3,0,0,1,.33,1.68V6a.26.26,0,0,1-.28.3c-.19,0-.29-.09-.29-.3V4.31a3.77,3.77,0,0,0-.29-1.46,3.9,3.9,0,0,0-.8-1.18A3.72,3.72,0,0,0,7.48.87a3.68,3.68,0,0,0-2.91,0,3.62,3.62,0,0,0-1.19.8,3.9,3.9,0,0,0-.8,1.18,3.77,3.77,0,0,0-.29,1.46V6c0,.21-.1.3-.29.3A.26.26,0,0,1,1.72,6V4.31a4.3,4.3,0,0,1,.33-1.68A4.49,4.49,0,0,1,3,1.26,4.29,4.29,0,0,1,4.35.34,4.09,4.09,0,0,1,6,0,4.1,4.1,0,0,1,7.7.34ZM6,9.76a1.37,1.37,0,0,1,1,.42,1.4,1.4,0,0,1,.43,1,1.28,1.28,0,0,1-.16.6,1.66,1.66,0,0,1-.42.49v1.2a.86.86,0,0,1-1.46.6.82.82,0,0,1-.25-.6V12.3a1.66,1.66,0,0,1-.42-.49,1.28,1.28,0,0,1-.16-.6A1.43,1.43,0,0,1,6,9.76Zm0,.57a.83.83,0,0,0-.6.26.81.81,0,0,0-.25.62.83.83,0,0,0,.11.42.79.79,0,0,0,.31.32.26.26,0,0,1,.11.1.33.33,0,0,1,0,.15v1.3a.27.27,0,0,0,.28.28.32.32,0,0,0,.21-.08.32.32,0,0,0,.08-.2V12.2a.33.33,0,0,1,0-.15.26.26,0,0,1,.11-.1.87.87,0,0,0,.42-.74.81.81,0,0,0-.25-.62A.83.83,0,0,0,6,10.33Z"/></g></g></svg>