<svg xmlns="http://www.w3.org/2000/svg" xmlns:xlink="http://www.w3.org/1999/xlink" viewBox="0 0 17.8 17.8"><defs><style>.cls-1{fill:url(#linear-gradient);}</style><linearGradient id="linear-gradient" x1="0.32" y1="6.5" x2="17.48" y2="11.3" gradientUnits="userSpaceOnUse"><stop offset="0" stop-color="#661ba4"/><stop offset="1" stop-color="#1bc3d7"/></linearGradient></defs><title>profile icon</title><g id="Layer_2" data-name="Layer 2"><g id="Layer_2-2" data-name="Layer 2"><path class="cls-1" d="M12.36.7A9.05,9.05,0,0,1,17.1,5.44a8.56,8.56,0,0,1,.7,3.46,8.56,8.56,0,0,1-.7,3.46,9.05,9.05,0,0,1-4.74,4.74,8.56,8.56,0,0,1-3.46.7,8.56,8.56,0,0,1-3.46-.7A9.14,9.14,0,0,1,.7,12.36a8.9,8.9,0,0,1,0-6.92A9.14,9.14,0,0,1,5.44.7,8.56,8.56,0,0,1,8.9,0,8.56,8.56,0,0,1,12.36.7ZM8.9.59a8.14,8.14,0,0,0-3.23.65A8.64,8.64,0,0,0,3,3,8.64,8.64,0,0,0,1.24,5.67,8.14,8.14,0,0,0,.59,8.9a8.1,8.1,0,0,0,.65,3.23A8.64,8.64,0,0,0,3,14.78a8.64,8.64,0,0,0,2.65,1.78,8.14,8.14,0,0,0,3.23.65,8.1,8.1,0,0,0,3.23-.65,8.64,8.64,0,0,0,2.65-1.78,8.64,8.64,0,0,0,1.78-2.65,8.1,8.1,0,0,0,.65-3.23,8.14,8.14,0,0,0-.65-3.23A8.64,8.64,0,0,0,14.78,3a8.64,8.64,0,0,0-2.65-1.78A8.1,8.1,0,0,0,8.9.59Zm0,3a2.53,2.53,0,0,1,1.24.31,3.13,3.13,0,0,1,.93.75,3.15,3.15,0,0,1,.59.94,2.53,2.53,0,0,1,.21,1V8a1.08,1.08,0,0,1-.12.52l-.22.39a1.59,1.59,0,0,0-.19.3.66.66,0,0,0-.06.27v.59a1.72,1.72,0,0,0,.07.52.71.71,0,0,0,.37.42L13.8,12.2a4.24,4.24,0,0,1,.57.41,1.55,1.55,0,0,1,.32.43,1.19,1.19,0,0,1,.13.46c0,.14,0,.29,0,.44a.27.27,0,0,1-.3.3.26.26,0,0,1-.29-.3c0-.15,0-.27,0-.37a.61.61,0,0,0-.08-.27A.81.81,0,0,0,14,13a2.21,2.21,0,0,0-.45-.32l-2.09-1.19a1.3,1.3,0,0,1-.61-.69,2.56,2.56,0,0,1-.14-.76V9.49A.92.92,0,0,1,10.8,9c.08-.15.15-.28.22-.39a2.37,2.37,0,0,0,.19-.31A.5.5,0,0,0,11.28,8V6.52a2.05,2.05,0,0,0-.17-.72A2.82,2.82,0,0,0,10.62,5a2.61,2.61,0,0,0-.75-.61,2,2,0,0,0-1.94,0A2.61,2.61,0,0,0,7.18,5a2.82,2.82,0,0,0-.49.79,2.05,2.05,0,0,0-.17.72V8a.5.5,0,0,0,.07.27,2.37,2.37,0,0,0,.19.31L7,9a1,1,0,0,1,.12.51v.59a2.56,2.56,0,0,1-.14.76,1.26,1.26,0,0,1-.61.69L4.29,12.72a2.54,2.54,0,0,0-.45.32,1.5,1.5,0,0,0-.21.26,1.07,1.07,0,0,0-.06.27c0,.1,0,.22,0,.37s-.09.3-.29.3a.27.27,0,0,1-.3-.3c0-.15,0-.3,0-.44A1.19,1.19,0,0,1,3.11,13a1.55,1.55,0,0,1,.32-.43A4.24,4.24,0,0,1,4,12.2L6.08,11a.71.71,0,0,0,.37-.42,1.72,1.72,0,0,0,.07-.52V9.49a.66.66,0,0,0-.06-.27,2.15,2.15,0,0,0-.18-.3l-.23-.39A1.08,1.08,0,0,1,5.93,8V6.52a2.53,2.53,0,0,1,.21-1,3.36,3.36,0,0,1,.59-.94,3.13,3.13,0,0,1,.93-.75A2.53,2.53,0,0,1,8.9,3.56Z"/></g></g></svg>