<svg xmlns="http://www.w3.org/2000/svg" viewBox="0 0 356.49 6.86"><defs><style>.cls-1{fill:gray;}</style></defs><title>separator</title><g id="Layer_2" data-name="Layer 2"><g id="Layer_2-2" data-name="Layer 2"><path class="cls-1" d="M.25,3.31C3.82,3.23,7.4,3.2,11,3.18s7.15-.08,10.73,0c7.15,0,14.31.1,21.46.07,3.58,0,7.16-.17,10.73-.27s7.16,0,10.73,0c7.16.12,14.31,0,21.47.16,3.57.05,7.15.09,10.73.08,1.79,0,3.57-.11,5.36-.16s3.58-.06,5.37,0L129,3.13c3.58,0,7.15,0,10.73-.12s7.16-.06,10.73,0Q161.22,3,172,3.31a.25.25,0,0,1,.24.26.24.24,0,0,1-.24.24q-10.74.28-21.47.33c-3.57,0-7.15.07-10.73,0S132.6,4,129,4l-21.46.15c-1.79,0-3.58,0-5.37,0s-3.57-.15-5.36-.16c-3.58,0-7.16,0-10.73.07-7.16.14-14.31,0-21.47.17-3.57.06-7.15.11-10.73,0s-7.15-.26-10.73-.27C36,3.87,28.86,4,21.71,4c-3.58,0-7.16,0-10.73,0S3.82,3.88.25,3.81A.26.26,0,0,1,0,3.55.25.25,0,0,1,.25,3.31Z"/><path class="cls-1" d="M356.25,3.81q-5.37.1-10.73.12c-3.58,0-7.16.09-10.74,0-7.15,0-14.3-.11-21.46-.07-3.57,0-7.15.16-10.73.27s-7.15.05-10.73,0c-7.15-.12-14.31,0-21.46-.17-3.58,0-7.16-.09-10.73-.07-1.79,0-3.58.11-5.37.16s-3.58.06-5.36,0L227.47,4c-3.57,0-7.15,0-10.73.12s-7.15.06-10.73,0q-10.72-.06-21.46-.33a.26.26,0,0,1-.25-.26.26.26,0,0,1,.25-.24Q195.27,3,206,3c3.58,0,7.16-.07,10.73,0s7.16.16,10.73.12L248.94,3c1.78,0,3.57,0,5.36,0s3.58.14,5.37.16c3.57,0,7.15,0,10.73-.08,7.15-.13,14.31,0,21.46-.16,3.58-.06,7.15-.11,10.73,0s7.16.26,10.73.27c7.16,0,14.31-.06,21.46-.07,3.58,0,7.16,0,10.74,0s7.15,0,10.73.13a.23.23,0,0,1,.24.25A.25.25,0,0,1,356.25,3.81Z"/><path class="cls-1" d="M174,6.26a8,8,0,0,1,.52-1.61c.21-.52.52-1,.76-1.5s.31-1.09.62-1.57a9.13,9.13,0,0,1,.92-1.43.42.42,0,0,1,.58-.06.43.43,0,0,1,.15.39,9.9,9.9,0,0,1-.44,1.64c-.15.55-.57,1-.75,1.51s-.36,1.06-.6,1.57a8,8,0,0,1-.86,1.46.51.51,0,0,1-.71.09A.52.52,0,0,1,174,6.26Z"/><path class="cls-1" d="M179,6.26a8,8,0,0,1,.51-1.61c.21-.52.52-1,.76-1.5s.32-1.09.62-1.57a9.92,9.92,0,0,1,.92-1.43.43.43,0,0,1,.59-.06.43.43,0,0,1,.15.39,9,9,0,0,1-.45,1.64c-.15.55-.57,1-.74,1.51s-.37,1.06-.61,1.57a7.94,7.94,0,0,1-.85,1.46.51.51,0,0,1-.9-.4Z"/></g></g></svg>