<svg xmlns="http://www.w3.org/2000/svg" viewBox="0 0 42 29.72"><defs><style>.cls-1{fill:#db3737;}</style></defs><title>Asset 4</title><g id="Layer_2" data-name="Layer 2"><g id="Layer_2-2" data-name="Layer 2"><path class="cls-1" d="M42,10.24c0-.5,0-1-.08-1.49-.16-2.11-.4-4.52-1.79-6.2-1.19-1.45-3-1.77-4.78-2C33.1.33,30.87.18,28.65.09c-4.52-.17-9-.07-13.55,0-2.32.05-4.64.1-6.95.29-2.84.22-5.76.64-7.09,3.48C-.12,6.44,0,9.67,0,12.41c0,2.46,0,4.92.07,7.37C.21,23,.4,27.12,3.84,28.52a20.13,20.13,0,0,0,6,1c2.08.13,4.16.11,6.24.15,4.37.06,8.73-.09,13.1-.18a29.6,29.6,0,0,0,9-1.08c2.51-.85,3.16-3.57,3.5-5.92A49.11,49.11,0,0,0,42,15.46C42,13.72,42,12,42,10.24Zm-25.23,11V8.43l10.88,6.38Z"/></g></g></svg>