<svg xmlns="http://www.w3.org/2000/svg" viewBox="0 0 152 203.08"><defs><style>.cls-1{fill:#212121;opacity:0.1;}</style></defs><title>Asset 6</title><g id="Layer_2" data-name="Layer 2"><g id="Layer_2-2" data-name="Layer 2"><path class="cls-1" d="M39.42,49.13a6.26,6.26,0,0,0-4.86-2.29H6.88A6.27,6.27,0,0,0,2,49.13a8,8,0,0,0-2,5.49V195.29a8,8,0,0,0,2,5.5,6.31,6.31,0,0,0,4.86,2.29H34.56a6.29,6.29,0,0,0,4.86-2.29,8,8,0,0,0,2-5.5V54.62A8,8,0,0,0,39.42,49.13ZM27.54,187.51H13.77V62.56H27.54Z"/><path class="cls-1" d="M94.63,2.29A6.26,6.26,0,0,0,89.77,0H62.09a6.24,6.24,0,0,0-4.85,2.29,8,8,0,0,0-2,5.49V195.29a8,8,0,0,0,2,5.5,6.27,6.27,0,0,0,4.85,2.29H89.77a6.29,6.29,0,0,0,4.86-2.29,8,8,0,0,0,2-5.5V7.78A8,8,0,0,0,94.63,2.29ZM82.88,187.51H69.11V15.56H82.88Z"/><path class="cls-1" d="M150,111.68a6.28,6.28,0,0,0-4.86-2.28H117.44a6.28,6.28,0,0,0-4.86,2.28,8,8,0,0,0-2,5.5v78.11a8,8,0,0,0,2,5.5,6.29,6.29,0,0,0,4.86,2.29h27.67a6.29,6.29,0,0,0,4.86-2.29,8,8,0,0,0,2-5.5V117.18A8,8,0,0,0,150,111.68Zm-11.74,75.83h-13.9V125h13.9Z"/></g></g></svg>